<svg width="64" height="35" viewBox="0 0 64 35" fill="none" xmlns="http://www.w3.org/2000/svg">
<path d="M10.9585 0.00628662C10.8849 0.00628662 10.8172 0.0467255 10.7823 0.111559L0.1585 19.8663C0.0868439 19.9995 0.183356 20.161 0.334645 20.161H4.15221C4.2257 20.161 4.29328 20.1207 4.32819 20.056L12.4796 4.96088C12.5549 4.82136 12.7549 4.82081 12.831 4.95991L17.9919 14.3922C18.0648 14.5254 17.9684 14.6882 17.8165 14.6882H10.2617C10.1895 14.6882 10.1229 14.7271 10.0875 14.79L8.44415 17.7053C8.369 17.8386 8.46533 18.0035 8.61838 18.0035H19.7462C19.8181 18.0035 19.8844 18.0421 19.92 18.1045L21.033 20.0599C21.0686 20.1224 21.1349 20.161 21.2068 20.161H28.6861C28.7966 20.161 28.8861 20.0714 28.8861 19.961V15.0876C28.8861 15.034 28.9076 14.9827 28.9457 14.9451L35.5332 8.45272C35.6606 8.32716 35.5717 8.11028 35.3929 8.11028H29.0861C28.9757 8.11028 28.8861 8.02073 28.8861 7.91028V4.20566C28.8861 4.0952 28.9757 4.00566 29.0861 4.00566H37.3223C40.4488 4.12891 41.9758 7.83898 39.8272 10.0914L39.4581 10.4783L34.1342 15.8738C34.0095 16.0002 34.0991 16.2143 34.2766 16.2143H38.2006C38.2536 16.2143 38.3044 16.2353 38.3419 16.2728L42.176 20.1025C42.2135 20.1399 42.2643 20.161 42.3173 20.161H47.3097C47.3749 20.161 47.436 20.1292 47.4734 20.0758L52.3887 13.0616C52.4645 12.9534 52.6227 12.9472 52.7068 13.0491L58.513 20.0883C58.551 20.1343 58.6076 20.161 58.6673 20.161H63.5396C63.709 20.161 63.8017 19.9635 63.6934 19.8332L55.3707 9.81903C55.3083 9.74394 55.3093 9.63478 55.3729 9.56077L63.3079 0.336716C63.4194 0.207053 63.3273 0.00628662 63.1562 0.00628662H58.4528C58.3937 0.00628662 58.3375 0.032465 58.2995 0.0777873L51.3444 8.37306C51.2244 8.51617 50.9911 8.43132 50.9911 8.24456V0.206287C50.9911 0.0958296 50.9016 0.00628662 50.7911 0.00628662H47.0264C46.9159 0.00628662 46.8264 0.0958297 46.8264 0.206287V19.2061C46.8264 19.384 46.6114 19.4734 46.4853 19.3478L41.6437 14.5284C41.5598 14.4449 41.5664 14.3073 41.6579 14.2321L42.1997 13.7872C47.4721 9.45682 45.0709 0.990751 38.2977 0.00835156C38.2883 0.00698846 38.2786 0.00628662 38.2691 0.00628662H24.8679C24.7575 0.00628662 24.6679 0.0958297 24.6679 0.206287V18.1536C24.6679 18.3616 24.3898 18.4314 24.2916 18.248L14.5797 0.11187C14.5449 0.046863 14.4771 0.00628662 14.4034 0.00628662H10.9585Z" fill="#E6E6E6"/>
<g clip-path="url(#clip0_202_39)">
<path d="M13.2245 24.2103C13.3105 24.2846 13.3094 24.4165 13.2268 24.4946L12.7599 24.9355C12.6854 25.006 12.57 25.0078 12.4884 24.9456C11.0699 23.8638 9.7156 24.9419 9.7156 26.1529C9.7156 27.3744 10.8723 28.2355 12.1426 27.477C12.2005 27.4425 12.2346 27.3788 12.2346 27.3115V26.2428C12.2346 26.1324 12.3241 26.0428 12.4346 26.0428H13.0777C13.1882 26.0428 13.2777 26.1324 13.2777 26.2428V28.478C13.2777 28.5885 13.1882 28.678 13.0777 28.678H12.5148C12.4539 28.678 12.4046 28.6287 12.4046 28.5678V28.5678C12.4046 28.4852 12.3168 28.4318 12.2417 28.4659C10.3859 29.3083 8.53333 28.2363 8.53333 26.0428C8.53333 23.8453 11.3297 22.572 13.2245 24.2103Z" fill="#A2A2A2"/>
<path fill-rule="evenodd" clip-rule="evenodd" d="M19.5124 23.5648C19.4019 23.5648 19.3124 23.6544 19.3124 23.7648V28.4543C19.3124 28.5648 19.4019 28.6543 19.5124 28.6543H20.2637C20.3741 28.6543 20.4637 28.5648 20.4637 28.4543V27.4462C20.4637 27.3358 20.5532 27.2462 20.6637 27.2462H21.4319C21.4981 27.2462 21.56 27.279 21.5973 27.3337L22.4363 28.5668C22.4736 28.6215 22.5355 28.6543 22.6017 28.6543H23.3739C23.5352 28.6543 23.6302 28.4732 23.5384 28.3406L22.7586 27.2127C22.692 27.1164 22.7229 26.9843 22.8193 26.918C24.4839 25.7753 23.5054 23.5648 21.6614 23.5648H19.5124ZM20.6791 24.5324C20.5687 24.5324 20.4791 24.622 20.4791 24.7324V26.1102C20.4791 26.2207 20.5687 26.3102 20.6791 26.3102H21.5455C22.7509 26.3102 22.8127 24.5324 21.5455 24.5324H20.6791Z" fill="#A2A2A2"/>
<path fill-rule="evenodd" clip-rule="evenodd" d="M31.9382 28.7959C33.4574 28.7959 34.6889 27.6055 34.6889 26.1371C34.6889 24.6687 33.4574 23.4783 31.9382 23.4783C30.4189 23.4783 29.1874 24.6687 29.1874 26.1371C29.1874 27.6055 30.4189 28.7959 31.9382 28.7959ZM31.9459 27.7576C32.8207 27.7576 33.5299 27.0215 33.5299 26.1135C33.5299 25.2055 32.8207 24.4695 31.9459 24.4695C31.071 24.4695 30.3619 25.2055 30.3619 26.1135C30.3619 27.0215 31.071 27.7576 31.9459 27.7576Z" fill="#A2A2A2"/>
<path d="M41.62 23.7569C41.62 23.6465 41.5305 23.5569 41.42 23.5569H40.6537C40.5431 23.5569 40.4535 23.6468 40.4537 23.7574L40.461 26.7585C40.461 28.5106 42.2216 29.2898 43.5262 28.3663C43.6548 28.2753 43.8531 28.3597 43.8531 28.5173V28.5173C43.8531 28.6147 43.932 28.6936 44.0294 28.6936H44.789C44.8994 28.6936 44.989 28.6041 44.989 28.4936V23.7569C44.989 23.6465 44.8994 23.5569 44.789 23.5569H44.0222C43.9117 23.5569 43.8222 23.6465 43.8222 23.7569V26.4753C43.8222 27.9857 41.62 28.2924 41.62 26.5933V23.7569Z" fill="#A2A2A2"/>
<path fill-rule="evenodd" clip-rule="evenodd" d="M51.3318 23.5648C51.2214 23.5648 51.1318 23.6544 51.1318 23.7648V28.4779C51.1318 28.5883 51.2214 28.6779 51.3318 28.6779H52.0909C52.2013 28.6779 52.2909 28.5883 52.2909 28.4779V27.462C52.2909 27.3515 52.3804 27.262 52.4909 27.262H53.4963C56.2162 27.2226 56.023 23.5648 53.4963 23.5648H51.3318ZM52.4909 24.5324C52.3804 24.5324 52.2909 24.6219 52.2909 24.7324V26.1101C52.2909 26.2206 52.3804 26.3101 52.4909 26.3101H53.3572C54.5626 26.3101 54.6244 24.5324 53.3572 24.5324H52.4909Z" fill="#A2A2A2"/>
</g>
<path d="M8.85645 34.1333L9.96578 31.7067H10.2188L11.3282 34.1333H11.0578L10.0386 31.8557H10.1426L9.12338 34.1333H8.85645ZM9.29325 33.4851L9.36951 33.2771H10.7804L10.8567 33.4851H9.29325Z" fill="white"/>
<path d="M11.7296 34.1333V31.7067H11.9411L13.6155 33.8144H13.5045V31.7067H13.7576V34.1333H13.5461L11.8752 32.0256H11.9861V34.1333H11.7296Z" fill="white"/>
<path d="M15.6139 34.1541C15.429 34.1541 15.258 34.1241 15.1009 34.064C14.946 34.0016 14.8108 33.9149 14.6953 33.804C14.582 33.6931 14.493 33.5625 14.4283 33.4123C14.3659 33.2621 14.3347 33.098 14.3347 32.92C14.3347 32.7421 14.3659 32.578 14.4283 32.4277C14.493 32.2775 14.5832 32.1469 14.6987 32.036C14.8143 31.9251 14.9495 31.8396 15.1043 31.7795C15.2615 31.7171 15.4325 31.6859 15.6174 31.6859C15.8023 31.6859 15.971 31.7148 16.1235 31.7725C16.2784 31.8303 16.4101 31.9181 16.5187 32.036L16.3593 32.1989C16.2576 32.0973 16.1455 32.0245 16.023 31.9805C15.9005 31.9366 15.7688 31.9147 15.6278 31.9147C15.4776 31.9147 15.3389 31.9401 15.2118 31.9909C15.087 32.0395 14.9772 32.11 14.8825 32.2024C14.79 32.2925 14.7172 32.3989 14.6641 32.5213C14.6132 32.6415 14.5878 32.7744 14.5878 32.92C14.5878 33.0633 14.6132 33.1962 14.6641 33.3187C14.7172 33.4412 14.79 33.5486 14.8825 33.6411C14.9772 33.7312 15.087 33.8017 15.2118 33.8525C15.3389 33.9011 15.4764 33.9253 15.6243 33.9253C15.763 33.9253 15.8936 33.9045 16.0161 33.8629C16.1409 33.8213 16.2553 33.7509 16.3593 33.6515L16.5049 33.8456C16.3893 33.9473 16.2541 34.0247 16.0993 34.0779C15.9444 34.1287 15.7826 34.1541 15.6139 34.1541ZM16.2587 33.8144V32.92H16.5049V33.8456L16.2587 33.8144Z" fill="white"/>
<path d="M16.8426 34.1333L17.952 31.7067H18.205L19.3144 34.1333H19.044L18.0248 31.8557H18.1288L17.1096 34.1333H16.8426ZM17.2794 33.4851L17.3557 33.2771H18.7666L18.8429 33.4851H17.2794Z" fill="white"/>
<path d="M19.7158 34.1333V31.7067H20.7038C20.9626 31.7067 21.1891 31.7587 21.3833 31.8627C21.5797 31.9644 21.7322 32.1065 21.8409 32.2891C21.9495 32.4717 22.0038 32.682 22.0038 32.92C22.0038 33.1581 21.9495 33.3684 21.8409 33.5509C21.7322 33.7335 21.5797 33.8768 21.3833 33.9808C21.1891 34.0825 20.9626 34.1333 20.7038 34.1333H19.7158ZM19.9723 33.9115H20.6899C20.9049 33.9115 21.0909 33.8699 21.2481 33.7867C21.4075 33.7012 21.5312 33.5845 21.619 33.4365C21.7068 33.2863 21.7507 33.1141 21.7507 32.92C21.7507 32.7236 21.7068 32.5514 21.619 32.4035C21.5312 32.2556 21.4075 32.14 21.2481 32.0568C21.0909 31.9713 20.9049 31.9285 20.6899 31.9285H19.9723V33.9115Z" fill="white"/>
<path d="M23.605 33.4504C23.5588 33.4504 23.5149 33.4389 23.4733 33.4157C23.434 33.3926 23.4028 33.3614 23.3797 33.3221C23.3566 33.2829 23.345 33.2366 23.345 33.1835C23.345 33.1349 23.3566 33.091 23.3797 33.0517C23.4028 33.0125 23.434 32.9813 23.4733 32.9581C23.5149 32.935 23.5588 32.9235 23.605 32.9235C23.6512 32.9235 23.694 32.935 23.7333 32.9581C23.7726 32.9813 23.8038 33.0125 23.8269 33.0517C23.8523 33.091 23.865 33.1349 23.865 33.1835C23.865 33.2366 23.8523 33.2829 23.8269 33.3221C23.8038 33.3614 23.7726 33.3926 23.7333 33.4157C23.694 33.4389 23.6512 33.4504 23.605 33.4504Z" fill="white"/>
<path d="M25.0286 34.1333L26.1379 31.7067H26.391L27.5003 34.1333H27.2299L26.2107 31.8557H26.3147L25.2955 34.1333H25.0286ZM25.4654 33.4851L25.5416 33.2771H26.9526L27.0288 33.4851H25.4654Z" fill="white"/>
<path d="M27.9017 34.1333V31.7067H28.1132L29.7876 33.8144H29.6767V31.7067H29.9297V34.1333H29.7183L28.0473 32.0256H28.1583V34.1333H27.9017Z" fill="white"/>
<path d="M31.7861 34.1541C31.6012 34.1541 31.4302 34.1241 31.273 34.064C31.1182 34.0016 30.9829 33.9149 30.8674 33.804C30.7541 33.6931 30.6652 33.5625 30.6005 33.4123C30.5381 33.2621 30.5069 33.098 30.5069 32.92C30.5069 32.7421 30.5381 32.578 30.6005 32.4277C30.6652 32.2775 30.7553 32.1469 30.8709 32.036C30.9864 31.9251 31.1216 31.8396 31.2765 31.7795C31.4336 31.7171 31.6046 31.6859 31.7895 31.6859C31.9744 31.6859 32.1431 31.7148 32.2957 31.7725C32.4505 31.8303 32.5822 31.9181 32.6909 32.036L32.5314 32.1989C32.4297 32.0973 32.3176 32.0245 32.1951 31.9805C32.0726 31.9366 31.9409 31.9147 31.7999 31.9147C31.6497 31.9147 31.511 31.9401 31.3839 31.9909C31.2591 32.0395 31.1493 32.11 31.0546 32.2024C30.9621 32.2925 30.8894 32.3989 30.8362 32.5213C30.7854 32.6415 30.7599 32.7744 30.7599 32.92C30.7599 33.0633 30.7854 33.1962 30.8362 33.3187C30.8894 33.4412 30.9621 33.5486 31.0546 33.6411C31.1493 33.7312 31.2591 33.8017 31.3839 33.8525C31.511 33.9011 31.6485 33.9253 31.7965 33.9253C31.9351 33.9253 32.0657 33.9045 32.1882 33.8629C32.313 33.8213 32.4274 33.7509 32.5314 33.6515L32.677 33.8456C32.5614 33.9473 32.4262 34.0247 32.2714 34.0779C32.1165 34.1287 31.9548 34.1541 31.7861 34.1541ZM32.4309 33.8144V32.92H32.677V33.8456L32.4309 33.8144Z" fill="white"/>
<path d="M33.0148 34.1333L34.1241 31.7067H34.3772L35.4865 34.1333H35.2161L34.1969 31.8557H34.3009L33.2817 34.1333H33.0148ZM33.4516 33.4851L33.5278 33.2771H34.9388L35.015 33.4851H33.4516Z" fill="white"/>
<path d="M36.2375 34.1333V31.9285H35.3847V31.7067H37.3469V31.9285H36.4941V34.1333H36.2375Z" fill="white"/>
<path d="M38.7818 33.4504C38.7356 33.4504 38.6917 33.4389 38.6501 33.4157C38.6108 33.3926 38.5796 33.3614 38.5565 33.3221C38.5334 33.2829 38.5218 33.2366 38.5218 33.1835C38.5218 33.1349 38.5334 33.091 38.5565 33.0517C38.5796 33.0125 38.6108 32.9813 38.6501 32.9581C38.6917 32.935 38.7356 32.9235 38.7818 32.9235C38.8281 32.9235 38.8708 32.935 38.9101 32.9581C38.9494 32.9813 38.9806 33.0125 39.0037 33.0517C39.0291 33.091 39.0418 33.1349 39.0418 33.1835C39.0418 33.2366 39.0291 33.2829 39.0037 33.3221C38.9806 33.3614 38.9494 33.3926 38.9101 33.4157C38.8708 33.4389 38.8281 33.4504 38.7818 33.4504Z" fill="white"/>
<path d="M40.8155 33.5301L40.8051 33.2181L42.275 31.7067H42.5697L41.4985 32.8299L41.3529 32.9859L40.8155 33.5301ZM40.5937 34.1333V31.7067H40.8502V34.1333H40.5937ZM42.3374 34.1333L41.2905 32.9269L41.4638 32.7397L42.6425 34.1333H42.3374Z" fill="white"/>
<path d="M42.5752 34.1333L43.6845 31.7067H43.9376L45.0469 34.1333H44.7765L43.7573 31.8557H43.8613L42.8421 34.1333H42.5752ZM43.012 33.4851L43.0883 33.2771H44.4992L44.5755 33.4851H43.012Z" fill="white"/>
<path d="M46.1174 34.1541C45.9372 34.1541 45.7638 34.1253 45.5974 34.0675C45.4333 34.0074 45.3062 33.9311 45.2161 33.8387L45.3166 33.6411C45.4021 33.7243 45.5165 33.7948 45.6598 33.8525C45.8054 33.908 45.958 33.9357 46.1174 33.9357C46.27 33.9357 46.3936 33.9173 46.4884 33.8803C46.5854 33.841 46.6559 33.789 46.6998 33.7243C46.746 33.6596 46.7692 33.5879 46.7692 33.5093C46.7692 33.4146 46.7414 33.3383 46.686 33.2805C46.6328 33.2228 46.5623 33.1777 46.4745 33.1453C46.3867 33.1107 46.2896 33.0806 46.1833 33.0552C46.077 33.0298 45.9707 33.0032 45.8644 32.9755C45.758 32.9454 45.6598 32.9061 45.5697 32.8576C45.4819 32.8091 45.4102 32.7455 45.3548 32.6669C45.3016 32.5861 45.275 32.4809 45.275 32.3515C45.275 32.2313 45.3062 32.1215 45.3686 32.0221C45.4333 31.9205 45.5316 31.8396 45.6633 31.7795C45.795 31.7171 45.9637 31.6859 46.1694 31.6859C46.3058 31.6859 46.441 31.7055 46.575 31.7448C46.7091 31.7818 46.8246 31.8338 46.9217 31.9008L46.835 32.1053C46.731 32.036 46.6201 31.9852 46.5022 31.9528C46.3867 31.9205 46.2746 31.9043 46.166 31.9043C46.0204 31.9043 45.9002 31.9239 45.8054 31.9632C45.7107 32.0025 45.6402 32.0557 45.594 32.1227C45.55 32.1874 45.5281 32.2613 45.5281 32.3445C45.5281 32.4393 45.5547 32.5156 45.6078 32.5733C45.6633 32.6311 45.7349 32.6762 45.8228 32.7085C45.9129 32.7409 46.0111 32.7698 46.1174 32.7952C46.2237 32.8206 46.3289 32.8484 46.4329 32.8784C46.5392 32.9085 46.6363 32.9477 46.7241 32.9963C46.8142 33.0425 46.8859 33.1049 46.939 33.1835C46.9945 33.2621 47.0222 33.3649 47.0222 33.492C47.0222 33.6099 46.9899 33.7197 46.9252 33.8213C46.8604 33.9207 46.7611 34.0016 46.627 34.064C46.4953 34.1241 46.3254 34.1541 46.1174 34.1541Z" fill="white"/>
<path d="M47.1929 34.1333L48.3022 31.7067H48.5553L49.6646 34.1333H49.3942L48.375 31.8557H48.479L47.4598 34.1333H47.1929ZM47.6297 33.4851L47.706 33.2771H49.1169L49.1932 33.4851H47.6297Z" fill="white"/>
<path d="M50.0661 34.1333V31.7067H50.2775L51.3869 33.5995H51.2759L52.3749 31.7067H52.5863V34.1333H52.3402V32.0915H52.3991L51.3869 33.8248H51.2655L50.2463 32.0915H50.3122V34.1333H50.0661Z" fill="white"/>
<path d="M52.9887 34.1333L54.0981 31.7067H54.3511L55.4605 34.1333H55.1901L54.1709 31.8557H54.2749L53.2557 34.1333H52.9887ZM53.4255 33.4851L53.5018 33.2771H54.9127L54.989 33.4851H53.4255Z" fill="white"/>
<defs>
<clipPath id="clip0_202_39">
<rect width="46.9333" height="5.33333" fill="white" transform="translate(8.53333 23.4667)"/>
</clipPath>
</defs>
</svg>
