<svg width="460" height="640" viewBox="0 0 460 640" fill="none" xmlns="http://www.w3.org/2000/svg">
<path d="M79.9682 84.6912L61 120.497H68.4751L83.1452 92.918L92.7693 110.774H78.7535L75.4831 116.664H95.7593L97.9085 120.497H111.551V111.335L123.791 99.0884H111.551V91.7962H126.314C131.785 92.0152 134.458 98.6064 130.698 102.608L130.052 103.295L120.147 113.486H127.996L134.91 120.497H143.974L152.944 107.502L163.503 120.497H172.94L157.71 101.893L172.286 84.6912H163.129L150.234 100.304V84.6912H142.946V119.656L133.602 110.214L134.849 109.174C144.083 101.475 139.868 86.4188 127.996 84.6912H104.169V118.347L86.4155 84.6912H79.9682Z" fill="#C6C6C6"/>
<path d="M64.4613 126.939H66.3583L69.6718 135.805H67.8365L67.1097 133.688H63.71L62.9832 135.805H61.1478L64.4613 126.939ZM66.5677 132.152L65.7794 129.936L65.4591 128.858H65.3606L65.0403 129.936L64.2519 132.152H66.5677ZM86.5509 134.381C86.1158 134.91 85.6025 135.314 85.0113 135.595C84.42 135.867 83.759 136.003 83.028 136.003C82.3711 136.003 81.7593 135.884 81.1927 135.644C80.6343 135.405 80.1497 135.079 79.7391 134.666C79.3286 134.253 79.0042 133.766 78.766 133.205C78.5279 132.635 78.4088 132.024 78.4088 131.372C78.4088 130.72 78.5279 130.113 78.766 129.552C79.0042 128.982 79.3286 128.491 79.7391 128.078C80.1497 127.665 80.6343 127.339 81.1927 127.1C81.7593 126.86 82.3711 126.741 83.028 126.741C83.7344 126.741 84.3542 126.865 84.8881 127.112C85.4301 127.36 85.9104 127.719 86.3292 128.189L85.1591 129.329C84.8962 129.023 84.5925 128.78 84.2476 128.598C83.9107 128.417 83.5085 128.326 83.0404 128.326C82.6297 128.326 82.2438 128.4 81.8825 128.549C81.5211 128.689 81.205 128.891 80.934 129.155C80.6712 129.419 80.4618 129.741 80.3058 130.121C80.1497 130.493 80.0717 130.91 80.0717 131.372C80.0717 131.834 80.1497 132.255 80.3058 132.635C80.4618 133.007 80.6712 133.324 80.934 133.589C81.205 133.853 81.5211 134.059 81.8825 134.208C82.2438 134.348 82.6297 134.418 83.0404 134.418C83.5331 134.418 83.9683 134.319 84.3461 134.121C84.732 133.915 85.0728 133.626 85.3684 133.254L86.5509 134.381ZM98.8366 126.939H100.734L104.047 135.805H102.212L101.485 133.688H98.0853L97.3584 135.805H95.5231L98.8366 126.939ZM100.943 132.152L100.155 129.936L99.8344 128.858H99.7359L99.4156 129.936L98.6273 132.152H100.943ZM113.456 126.939H116.437C117.135 126.939 117.763 127.046 118.321 127.261C118.88 127.475 119.356 127.781 119.75 128.177C120.144 128.565 120.444 129.032 120.649 129.576C120.863 130.121 120.97 130.72 120.97 131.372C120.97 132.032 120.863 132.635 120.649 133.18C120.444 133.725 120.144 134.191 119.75 134.579C119.356 134.967 118.88 135.269 118.321 135.483C117.763 135.698 117.135 135.805 116.437 135.805H113.456V126.939ZM116.363 134.22C116.847 134.22 117.274 134.154 117.644 134.022C118.013 133.882 118.321 133.688 118.568 133.44C118.814 133.192 118.999 132.895 119.122 132.548C119.245 132.193 119.307 131.801 119.307 131.372C119.307 130.943 119.245 130.555 119.122 130.208C118.999 129.853 118.814 129.552 118.568 129.304C118.321 129.056 118.013 128.866 117.644 128.734C117.274 128.594 116.847 128.524 116.363 128.524H115.119V134.22H116.363ZM132.348 128.524V130.58H135.883V132.165H132.348V134.22H136.278V135.805H130.685V126.939H136.278V128.524H132.348ZM146.183 126.939H147.821L150.519 131.632H150.617L153.315 126.939H154.966V135.805H153.315V131.434L153.413 129.948H153.315L151.073 133.923H150.075L147.821 129.948H147.723L147.821 131.434V135.805H146.183V126.939ZM167.35 131.682L164.382 126.939H166.365L168.126 129.874H168.225L169.925 126.939H171.933L169.013 131.682V135.805H167.35V131.682Z" fill="#EA7000"/>
<mask id="mask0_929_648" style="mask-type:luminance" maskUnits="userSpaceOnUse" x="102" y="57" width="47" height="40">
<path d="M148.467 63.4773L107.431 57L102.318 89.7408L143.354 96.2181L148.467 63.4773Z" fill="white"/>
</mask>
<g mask="url(#mask0_929_648)">
<path d="M127.629 62.285C127.11 62.203 126.583 62.2116 126.069 62.3073L107.072 65.9463C106.428 66.0739 105.934 66.5857 105.833 67.2316C105.732 67.8774 106.046 68.5167 106.62 68.8367L110.124 70.7592C108.815 72.243 107.914 74.0993 107.593 76.152L107.313 77.949C107.029 79.765 106.044 81.5293 105.076 82.8902C104.529 83.6557 103.927 84.3993 103.258 85.0667C103.01 85.3094 102.896 85.6584 102.96 86.0029C103.025 86.3471 103.256 86.6326 103.577 86.7683L107.521 88.4393C107.779 88.5521 108.075 88.5465 108.336 88.4368C108.596 88.3272 108.8 88.1105 108.895 87.8437C109.874 85.1937 109.981 82.6948 109.846 80.8714C109.782 79.9309 109.651 78.9602 109.4 78.0489L109.645 76.4759C109.947 74.5447 110.886 72.8254 112.248 71.5465C113.23 70.6859 114.426 70.0556 115.759 69.7616L126.442 67.405C127 67.2833 127.556 67.6333 127.68 68.19C127.803 68.7468 127.453 69.301 126.896 69.4226L116.213 71.7792C115.369 71.9671 114.595 72.3363 113.933 72.8346L123.591 78.1331C124.051 78.3827 124.55 78.5533 125.069 78.6353C125.589 78.7171 126.115 78.7086 126.63 78.6129L145.63 74.9942C146.273 74.8729 146.768 74.3547 146.869 73.7089C146.97 73.063 146.656 72.4237 146.082 72.1037L129.108 62.787C128.648 62.5375 128.149 62.367 127.629 62.285ZM111.563 84.386C111.211 86.6432 116.358 89.8604 123.155 90.9333C129.952 92.0061 135.832 90.5295 136.185 88.2722L136.656 78.8195L127.025 80.6672C126.273 80.8106 125.503 80.8202 124.753 80.7018C124.003 80.5834 123.266 80.3361 122.601 79.969L113.997 75.2429L111.563 84.386Z" fill="#EA7000"/>
</g>
<rect x="226" y="203" width="12" height="437" fill="#FFD3AB"/>
<path d="M226 116.907C226 116.907 248.104 123.501 271.5 123.501C287 123.501 306.5 110.999 343.5 111C356 111 379 116.907 379 116.907V213.001C379 213.001 368 206.657 331.5 208.501C307.247 209.726 294 221.501 267 221.501C253.918 221.501 226 215.907 226 215.907V116.907Z" fill="#EA7000"/>
<path d="M301.228 143.282C301.228 142.826 301.047 142.389 300.724 142.067C300.402 141.745 299.965 141.563 299.509 141.563C299.053 141.563 298.616 141.745 298.294 142.067C297.971 142.389 297.79 142.826 297.79 143.282V146.674C297.79 147.13 297.971 147.567 298.294 147.889C298.616 148.212 299.053 148.393 299.509 148.393C299.965 148.393 300.402 148.212 300.724 147.889C301.047 147.567 301.228 147.13 301.228 146.674V143.282ZM312.941 161.593C312.464 159.735 311.597 158.001 310.397 156.505C309.208 154.998 307.717 153.757 306.02 152.861C304.327 151.971 302.472 151.433 300.566 151.28C298.654 151.137 296.734 151.394 294.928 152.036C293.112 152.67 291.449 153.677 290.047 154.993C288.659 156.286 287.544 157.844 286.77 159.576C286.012 161.334 285.629 163.231 285.647 165.145C285.594 167.356 286.067 169.547 287.027 171.54C287.987 173.532 289.407 175.267 291.17 176.603L291.972 177.359C292.659 178.07 292.659 178.07 292.636 179.651V180.384C292.607 180.891 292.686 181.399 292.866 181.874C293.026 182.383 293.31 182.848 293.691 183.226C293.865 183.405 294.057 183.565 294.263 183.707V185.999C294.226 186.414 294.271 186.833 294.396 187.232C294.521 187.63 294.723 187.999 294.992 188.319C295.26 188.638 295.589 188.902 295.96 189.093C296.33 189.285 296.735 189.402 297.151 189.436H301.734C302.576 189.366 303.356 188.965 303.901 188.32C304.447 187.676 304.714 186.841 304.645 185.999V183.707C304.851 183.566 305.043 183.405 305.218 183.226C305.577 182.846 305.852 182.392 306.02 181.897C306.198 181.413 306.276 180.899 306.249 180.384V179.536C306.249 178.276 306.249 178.276 306.959 177.474L307.83 176.672C310.768 174.387 312.687 171.035 313.17 167.345C313.508 165.433 313.43 163.471 312.941 161.593ZM301.322 185.953H297.701V184.509H301.322V185.953ZM299.511 161.753C298.764 161.753 298.047 162.05 297.518 162.579C296.99 163.107 296.693 163.824 296.693 164.572C296.693 165.18 296.451 165.762 296.021 166.192C295.592 166.622 295.009 166.863 294.401 166.863C293.793 166.863 293.21 166.622 292.781 166.192C292.351 165.762 292.109 165.18 292.109 164.572C292.103 163.598 292.291 162.633 292.66 161.732C293.03 160.831 293.575 160.013 294.264 159.324C294.952 158.636 295.771 158.091 296.672 157.721C297.572 157.351 298.538 157.164 299.511 157.17C300.119 157.17 300.702 157.411 301.132 157.841C301.562 158.271 301.803 158.854 301.803 159.461C301.803 160.069 301.562 160.652 301.132 161.082C300.702 161.512 300.119 161.753 299.511 161.753ZM320.503 167.482H316.309C315.853 167.482 315.416 167.301 315.094 166.979C314.772 166.656 314.591 166.219 314.591 165.763C314.591 165.308 314.772 164.87 315.094 164.548C315.416 164.226 315.853 164.045 316.309 164.045H320.503C320.959 164.045 321.396 164.226 321.718 164.548C322.041 164.87 322.222 165.308 322.222 165.763C322.222 166.219 322.041 166.656 321.718 166.979C321.396 167.301 320.959 167.482 320.503 167.482ZM312.07 153.709C311.844 153.71 311.62 153.666 311.412 153.58C311.203 153.493 311.014 153.366 310.855 153.205C310.533 152.883 310.353 152.446 310.353 151.991C310.353 151.535 310.533 151.098 310.855 150.776L313.834 147.797C314.16 147.493 314.591 147.328 315.036 147.336C315.482 147.344 315.906 147.524 316.221 147.839C316.536 148.154 316.717 148.579 316.725 149.024C316.732 149.469 316.567 149.9 316.263 150.226L313.284 153.205C313.126 153.367 312.937 153.495 312.729 153.582C312.52 153.668 312.296 153.712 312.07 153.709ZM317.341 182.218C316.887 182.208 316.453 182.028 316.126 181.713L313.147 178.734C312.945 178.535 312.797 178.288 312.714 178.017C312.63 177.746 312.616 177.459 312.671 177.181C312.725 176.903 312.848 176.642 313.028 176.423C313.208 176.204 313.439 176.033 313.701 175.925C314.016 175.792 314.363 175.758 314.697 175.825C315.032 175.893 315.338 176.06 315.576 176.305L318.555 179.284C318.717 179.442 318.846 179.631 318.934 179.84C319.022 180.048 319.068 180.272 319.068 180.499C319.068 180.725 319.022 180.949 318.934 181.158C318.846 181.367 318.717 181.555 318.555 181.713C318.233 182.036 317.796 182.217 317.341 182.218ZM286.976 153.709C286.52 153.709 286.083 153.528 285.761 153.205L282.782 150.226C282.46 149.901 282.28 149.461 282.283 149.003C282.285 148.546 282.469 148.107 282.794 147.785C283.119 147.463 283.559 147.283 284.016 147.286C284.474 147.288 284.912 147.472 285.234 147.797L288.191 150.776C288.431 151.016 288.594 151.322 288.66 151.656C288.726 151.989 288.692 152.334 288.562 152.648C288.433 152.962 288.212 153.23 287.93 153.419C287.648 153.608 287.316 153.709 286.976 153.709ZM281.728 182.218C281.502 182.223 281.277 182.181 281.068 182.094C280.858 182.007 280.67 181.877 280.513 181.713C280.192 181.391 280.011 180.954 280.011 180.499C280.011 180.043 280.192 179.607 280.513 179.284L283.493 176.305C283.818 176.002 284.249 175.836 284.695 175.844C285.14 175.852 285.565 176.032 285.88 176.347C286.195 176.662 286.375 177.087 286.383 177.532C286.391 177.978 286.225 178.408 285.922 178.734L282.966 181.736C282.629 182.048 282.187 182.22 281.728 182.218ZM282.691 167.482H278.497C278.041 167.482 277.604 167.301 277.281 166.979C276.959 166.656 276.778 166.219 276.778 165.763C276.778 165.308 276.959 164.87 277.281 164.548C277.604 164.226 278.041 164.045 278.497 164.045H282.691C283.146 164.045 283.584 164.226 283.906 164.548C284.228 164.87 284.409 165.308 284.409 165.763C284.409 166.219 284.228 166.656 283.906 166.979C283.584 167.301 283.146 167.482 282.691 167.482Z" fill="#FFD3AB"/>
<rect x="258" y="309" width="12" height="331" fill="#B0D9FF"/>
<path d="M258 299.907C258 299.907 280.104 306.501 303.5 306.501C319 306.501 338.5 293.999 375.5 294C388 294 411 299.907 411 299.907V396.001C411 396.001 400 389.657 363.5 391.501C339.247 392.726 326 404.501 299 404.501C285.918 404.501 258 398.907 258 398.907V299.907Z" fill="#369DF1"/>
<g clip-path="url(#clip0_929_648)">
<path d="M339.4 332.375H349.2C350.555 332.375 351.65 333.436 351.65 334.75C351.65 336.064 350.555 337.125 349.2 337.125H340.503C340.105 339.04 338.749 340.621 336.95 341.378V363.25H349.2C350.555 363.25 351.65 364.311 351.65 365.625C351.65 366.939 350.555 368 349.2 368H319.8C318.445 368 317.35 366.939 317.35 365.625C317.35 364.311 318.445 363.25 319.8 363.25H332.05V341.378C330.251 340.613 328.896 339.032 328.498 337.125H319.8C318.445 337.125 317.35 336.064 317.35 334.75C317.35 333.436 318.445 332.375 319.8 332.375H329.6C330.718 330.935 332.494 330 334.5 330C336.506 330 338.282 330.935 339.4 332.375ZM343.657 353.75H354.743L349.2 344.532L343.657 353.75ZM349.2 360.875C344.384 360.875 340.38 358.352 339.553 355.019C339.354 354.203 339.63 353.364 340.066 352.637L347.355 340.524C347.738 339.886 348.442 339.5 349.2 339.5C349.958 339.5 350.663 339.893 351.045 340.524L358.334 352.637C358.771 353.364 359.046 354.203 358.847 355.019C358.02 358.352 354.016 360.875 349.2 360.875ZM319.708 344.532L314.165 353.75H325.259L319.708 344.532ZM310.069 355.019C309.87 354.203 310.146 353.364 310.582 352.637L317.871 340.524C318.254 339.886 318.958 339.5 319.716 339.5C320.474 339.5 321.178 339.893 321.561 340.524L328.85 352.637C329.286 353.364 329.562 354.203 329.363 355.019C328.528 358.352 324.524 360.875 319.708 360.875C314.893 360.875 310.896 358.352 310.069 355.019Z" fill="#B0D9FF"/>
</g>
<rect width="12" height="346" transform="matrix(-1 0 0 1 206 294)" fill="#CCC3FF"/>
<path d="M206 227.907C206 227.907 183.896 234.501 160.5 234.501C145 234.501 125.5 221.999 88.5 222C76 222 53 227.907 53 227.907V324.001C53 324.001 64 317.657 100.5 319.501C124.753 320.726 138 332.501 165 332.501C178.082 332.501 206 326.907 206 326.907V227.907Z" fill="#7E5BE2"/>
<path d="M149.782 268.917C151.485 274.153 151.376 279.81 149.472 284.976C147.568 290.142 143.979 294.516 139.286 297.392C134.592 300.268 129.067 301.479 123.601 300.829C118.135 300.179 113.047 297.706 109.158 293.809C105.27 289.912 102.807 284.818 102.166 279.35C101.526 273.881 102.746 268.356 105.629 263.666C108.513 258.976 112.892 255.394 118.059 253.498C123.227 251.602 128.883 251.503 134.114 253.216L130.908 256.423C130.733 256.599 130.571 256.788 130.424 256.99C126.236 256.144 121.887 256.669 118.02 258.488C114.153 260.306 110.974 263.321 108.952 267.087C106.931 270.853 106.175 275.169 106.795 279.398C107.416 283.627 109.381 287.544 112.4 290.569C115.418 293.594 119.33 295.567 123.556 296.197C127.782 296.826 132.099 296.078 135.867 294.064C139.636 292.049 142.656 288.875 144.482 285.01C146.307 281.146 146.84 276.796 146.003 272.605C146.213 272.456 146.409 272.29 146.591 272.108L149.782 268.917ZM141.499 273.453C141.703 274.445 141.805 275.466 141.805 276.516C141.805 279.676 140.826 282.759 139.005 285.341C137.183 287.923 134.607 289.879 131.631 290.939C128.655 291.999 125.423 292.112 122.38 291.262C119.337 290.412 116.631 288.642 114.634 286.193C112.636 283.744 111.445 280.737 111.224 277.585C111.003 274.432 111.762 271.288 113.397 268.584C115.033 265.88 117.464 263.748 120.359 262.481C123.253 261.214 126.469 260.874 129.564 261.508V266.243C127.279 265.56 124.831 265.66 122.609 266.526C120.387 267.392 118.517 268.974 117.295 271.023C116.073 273.072 115.569 275.47 115.864 277.837C116.158 280.205 117.233 282.406 118.919 284.094C120.605 285.781 122.805 286.857 125.172 287.153C127.539 287.448 129.936 286.945 131.985 285.724C134.033 284.503 135.616 282.633 136.483 280.41C137.349 278.187 137.45 275.739 136.769 273.453H141.499ZM126.496 281.11C127.2 281.11 127.895 280.949 128.527 280.638C129.159 280.326 129.711 279.874 130.14 279.315C130.569 278.756 130.864 278.107 131.002 277.416C131.14 276.725 131.117 276.011 130.936 275.33L135.78 270.482L135.871 270.39H143.342C143.544 270.39 143.743 270.351 143.929 270.274C144.115 270.198 144.284 270.085 144.426 269.943L150.55 263.817C150.765 263.603 150.911 263.33 150.97 263.032C151.03 262.735 150.999 262.427 150.883 262.146C150.767 261.866 150.571 261.627 150.318 261.459C150.066 261.29 149.77 261.201 149.466 261.201H141.812V253.544C141.811 253.242 141.722 252.946 141.554 252.694C141.386 252.442 141.147 252.246 140.867 252.13C140.588 252.014 140.28 251.983 139.984 252.042C139.687 252.101 139.414 252.246 139.2 252.46L133.076 258.586C132.933 258.728 132.82 258.897 132.743 259.083C132.666 259.269 132.626 259.468 132.626 259.67V267.143L132.534 267.235L127.69 272.078C127.009 271.894 126.295 271.87 125.603 272.007C124.911 272.145 124.26 272.439 123.7 272.869C123.141 273.298 122.687 273.851 122.376 274.484C122.064 275.117 121.902 275.813 121.903 276.519C121.903 277.737 122.387 278.906 123.248 279.768C124.11 280.629 125.278 281.113 126.496 281.113" fill="#CCC3FF"/>
<defs>
<clipPath id="clip0_929_648">
<rect width="49" height="38" fill="white" transform="translate(310 330)"/>
</clipPath>
</defs>
</svg>
