<svg width="1379" height="351" viewBox="0 0 1379 351" fill="none" xmlns="http://www.w3.org/2000/svg">
<path fill-rule="evenodd" clip-rule="evenodd" d="M1379 0H0V350.117C0 319.64 16.4731 291.206 42.71 275.698C69.291 259.987 102.7 259.76 129.281 275.471C155.862 291.183 188.888 291.183 215.469 275.471C242.05 259.76 275.075 259.76 301.656 275.471C328.237 291.183 361.263 291.183 387.844 275.471C414.425 259.76 447.45 259.76 474.031 275.471C500.612 291.183 533.638 291.183 560.219 275.471C586.8 259.76 619.825 259.76 646.406 275.471C672.987 291.183 706.013 291.183 732.594 275.471C759.175 259.76 792.2 259.76 818.781 275.471C845.362 291.183 878.388 291.183 904.969 275.471C931.55 259.76 964.575 259.76 991.156 275.471C1017.74 291.183 1050.76 291.183 1077.34 275.471C1103.92 259.76 1136.95 259.76 1163.53 275.471C1190.11 291.183 1223.14 291.183 1249.72 275.471C1276.3 259.76 1309.71 259.987 1336.29 275.698C1362.53 291.206 1379 319.64 1379 350.117V0Z" fill="white"/>
</svg>
