<svg width="1379" height="580" viewBox="0 0 1379 580" fill="none" xmlns="http://www.w3.org/2000/svg">
<path d="M0 337.527C0 302.028 21.7663 270.16 54.8336 257.245V257.245C74.9947 249.371 97.3803 249.371 117.541 257.245L135.996 264.453C159.388 273.588 185.362 273.588 208.754 264.453L222.184 259.208C245.576 250.072 271.549 250.072 294.941 259.208L308.371 264.453C331.763 273.588 357.737 273.588 381.129 264.453L394.559 259.208C417.951 250.072 443.924 250.072 467.316 259.208L480.746 264.453C504.138 273.588 530.112 273.588 553.504 264.453L566.934 259.208C590.326 250.072 616.299 250.072 639.691 259.208L653.121 264.453C676.513 273.588 702.487 273.588 725.879 264.453L739.309 259.208C762.701 250.072 788.674 250.072 812.066 259.208L825.496 264.453C848.888 273.588 874.862 273.588 898.254 264.453L911.684 259.208C935.076 250.072 961.049 250.072 984.441 259.208L997.871 264.453C1021.26 273.588 1047.24 273.588 1070.63 264.453L1084.06 259.208C1107.45 250.072 1133.42 250.072 1156.82 259.208L1170.25 264.453C1193.64 273.588 1219.61 273.588 1243 264.453L1261.46 257.245C1281.62 249.371 1304.01 249.371 1324.17 257.245V257.245C1357.23 270.16 1379 302.028 1379 337.527V480C1379 535.228 1334.23 580 1279 580L100 580C44.7715 580 0 535.228 0 480L0 337.527Z" fill="white"/>
</svg>
